<svg xmlns="http://www.w3.org/2000/svg" viewBox="0 0 300 520"><g fill="none" stroke="#b52b4d" stroke-width="2"><path d="M146 506C137 391 144 279 197 171 226 112 258 67 278 23"/><path d="M163 380c-38-11-65-35-81-70 38 1 66 22 81 70Z"/><path d="M169 333c30-25 62-33 97-23-21 31-53 39-97 23Z"/><path d="M178 277c-37-13-62-38-74-75 38 4 63 28 74 75Z"/><path d="M197 218c29-26 58-35 90-27-18 31-47 40-90 27Z"/><path d="M215 163c-31-15-49-39-54-72 32 7 51 31 54 72Z"/><path d="M236 113c25-23 48-30 70-22-13 25-36 32-70 22Z"/></g></svg>